<?xml version="1.0" standalone="no"?>
<!DOCTYPE svg PUBLIC "-//W3C//DTD SVG 20010904//EN"
 "http://www.w3.org/TR/2001/REC-SVG-20010904/DTD/svg10.dtd">
<svg version="1.0" xmlns="http://www.w3.org/2000/svg"
 width="365.000000pt" height="365.000000pt" viewBox="0 0 365.000000 365.000000"
 preserveAspectRatio="xMidYMid meet">
<metadata>
Created by potrace 1.15, written by Peter Selinger 2001-2017
</metadata>
<g transform="translate(0.000000,365.000000) scale(0.100000,-0.100000)"
fill="#000000" stroke="none">
<path d="M214 3598 c3 -29 10 -105 16 -168 23 -260 40 -461 50 -565 10 -109
46 -507 75 -845 9 -96 20 -222 25 -280 6 -58 17 -181 25 -275 8 -93 19 -219
25 -280 12 -128 33 -364 56 -625 9 -102 19 -188 22 -191 4 -4 301 -88 660
-188 l654 -181 216 60 c257 71 377 104 492 136 47 13 204 57 350 97 l265 74 7
64 c4 35 19 197 33 359 14 162 37 417 50 565 13 149 36 401 50 560 14 160 37
414 50 565 14 151 30 329 35 395 6 66 18 192 26 280 8 88 19 212 24 275 6 63
13 139 16 168 l5 52 -1616 0 -1616 0 5 -52z m2976 -195 c0 -10 -22 -263 -49
-563 -27 -300 -84 -939 -127 -1421 l-78 -876 -531 -147 c-291 -81 -540 -149
-552 -152 l-23 -6 0 205 0 206 -82 25 c-46 13 -238 70 -428 126 -190 56 -346
103 -347 104 -4 3 -53 568 -53 610 l0 26 210 0 209 0 5 -32 c3 -18 10 -91 16
-162 6 -71 11 -130 13 -132 8 -6 443 -110 450 -107 4 2 7 150 7 329 l0 324
-469 0 -469 0 -6 27 c-3 16 -11 102 -17 193 -6 91 -12 169 -12 174 -1 5 216
101 483 212 267 111 484 206 483 211 -2 4 -228 9 -503 11 l-499 2 -6 33 c-7
43 -45 349 -45 365 0 9 113 12 530 12 l530 0 0 210 0 210 680 0 c641 0 680 -1
680 -17z"/>
</g>
</svg>
